<?xml version="1.0" encoding="utf-8"?>
<svg version="1.1" id="Layer_1" xmlns="http://www.w3.org/2000/svg" xmlns:xlink="http://www.w3.org/1999/xlink" x="0px" y="0px"
	 viewBox="0 0 2668.137 834.963" enable-background="new 0 0 2668.137 834.963" xml:space="preserve">
<g>
	<g>
		<path fill="#020101" d="M1242.549,60.65h0.238c16.777,18.219,24.591,48.144,25.606,74.771c7.434-3.623,18.479-8.151,24.276-2.279
			c3.516-24.187-10.597-49.509,26.149-36.334c-6.143,40.828-6.45,43.299,11.11,45.358c0.449-8.81,2.925-38.891,11.315-41.76
			c7.074-1.933,10.824,7.811,13.626,11.352c3.86,4.893,6.139-1.738,9.315-0.361c0.327,1.178-0.197,2.271-0.952,3.152
			c-50.547,65.029,25.032-2.114,41.939,119.736c46.072-10.543,92.508-6.353,94.085-6.363c-0.164,0.212-0.487,0.636-0.651,0.847
			c26.352,15.247-1.941,117.837-21.532,42.192c-0.108,14.822,8.062,23.199,12.221,29.836c-22.027-8.225-44.371-12.234-67.04-10.181
			c65.585,9.867,77.445,129.112,78.462,130.953c73.189,113.458,62.343,300.102,21.651,329.002
			c-26.73,19.757-70.158,19.268-102.195,12.508c-18.294-4.203-118.504-11.895-211.556-76.566
			c4.434,26.654,11.739,59.69,20.774,85.245c0.479,0.978-0.063,1.94-0.848,2.554h-1.312c-2.316-1.675-10.441-23.075-30.844-31.65
			c-33.628-14.569-65.208,19.76-61.773,7.49c11.064-61.643,9.519-129.678,9.192-131.057c-17.882-27.791-30.706-61.41-32.356-93.371
			c-2.448-5.484-27.686-43.837-31.464-101.032c0-21.796,1.732-42.827,14.716-66.077c27.079-48.658,32.1-11.292,37.635-72.318
			c3.322-37.86-0.427-82.443-7.523-119.988c-0.375-2.37-3.703-7.178,1.55-13.177c15.701-17.875,73.094-12.543,75.176,4.375
			l-0.123,0.026c-2.519-18.136-59.354-16.919-71.82-0.788c-7.814,9.976,21.012,16.648,27.662,17.132
			c28.874,2.36,34.17-6.963,40.72-8.977c1.899-1.561,3.423-3.843,3.386-6.39l0.13,0.026c0.056,2.617-1.479,4.88-3.293,6.624
			c0.152,0.68,0.427,1.379,0.223,2.082c-2.754,11.913-4.743,24.023-5.709,36.211c2.07-4.363,8.965-38.737,54.543-58.383
			c2.505-1.437-0.975-47.04-11.017-60.401C1232.143,79.52,1208.517,79.017,1242.549,60.65 M1232.182,69.746
			c-1.953,1.525-6.705,5.419-4.814,7.033c3.096,2.918,20.932-3.849,23.573,69.333c-31.886,13.099-52.985,35.807-58.58,70.11
			c-4.182,21.108,7.046,88.699,22.599,113.502c7.144,7.988,12.467,17.511,16.132,27.554c11.427-29.598,30.325-77.344,64.787-69.184
			c-7.315-11.53-12.883-24.201-16.269-37.434c0.171-0.201,0.506-0.606,0.673-0.81c-3.483-8.272,10.24-27.5,21.596-28.175
			c8.379-0.297,28.288,39.178,31.695,46.845c18.911-16.954,44.857-27.875,69.173-33.587c-0.089-1.368-0.301-2.721-0.498-4.074
			c-17.056-112.278-90.921-53.014-43.21-114.915c-1.606,0.112-3.323-0.074-4.572-1.189c-5.116-4.382-12.886-28.071-19.54,4.925
			c-1.476,8.341-2.431,16.786-2.78,25.246c-20.772-2.157-22.845-4.861-15.935-46.47c-22.989-7.916-20.941,1.007-21.053,17.578
			c0.049,12.014,1.174,19.515-2.189,19.882c-1.565,0.067-2.278-1.576-3.498-2.241c-5.832-3.29-17.567,2.489-23.41,5.761
			c-0.227-25.994-7.117-56.018-23.8-75.827C1238.728,65.341,1235.36,67.426,1232.182,69.746 M1127.694,168.796
			c8.358,45.257,12.891,108.086,1.052,153.534c31.406-15.261,63.674-12.443,76.559-5.903c-15.641-43.211-23.508-84.762-9.716-147.71
			c-4.246,2.087-15.129,12.011-48.009,7.572C1140.54,175.286,1133.288,173.413,1127.694,168.796 M1294.81,226.725
			c2.769-0.836,5.512-1.669,8.203-2.725C1300.099,224.027,1297.159,225.016,1294.81,226.725 M1288.569,233.542
			c-4.107,4.323-5.817,10.415-5.899,16.266c1.312-0.327,2.628-0.628,3.962-0.851c0.234,0.959,0.416,1.933,0.743,2.87
			c6.23-1.751,12.947-9.178,15.823-14.994c-0.929-2.966-1.925-5.914-2.855-8.876l-0.29-0.208
			C1295.784,228.532,1291.584,230.338,1288.569,233.542 M1308.522,229.673c0.172,1.083,9.479,32.712,21.633,42.091
			c0.676-0.219,1.122-0.933,1.535-1.491C1325.594,255.734,1313.036,235.976,1308.522,229.673 M1387.627,245.292
			c-19.85,6.889-43.9,19.306-55.666,34.832c-17.98-7.641-25.502-36.361-28.03-40.909c-5.423,7.65-12.561,11.972-16.44,12.842
			c4.103,20.744,20.116,41.934,24.03,48.009c-8.292-3.384-16.002-9.018-29.639-5.219c-53.285,14.758-62.77,158.545-59.171,167.614
			c2.996,6.155,6.85,12.077,12.221,16.422c15.445,12.482,29.212-4.557,32.293-7.166c-16.321,18.309-30.939,15.435-43.154-3.929
			c-1.453-2.174-2.45-4.613-3.814-6.828c0.245,4.629,1.433,25.502,3.197,29.781c9.354,26.006-9.019,69.221-16.7,76.254
			c1.293-4.565,3.078-8.973,4.472-13.504c20.782-61.572,6.388-59.03,6.375-108.871c-0.315-25.569,3.326-54.884,10.363-80.298
			c-0.035-0.372-4.664-17.284-18.663-29.992c-18,17.699-71.097,14.868-79.124,3.94c15.566,12.979,61.473,6.508,75.407-6.995
			c-22.882-18.151-52.892-15.046-78.153,0.379c-0.256,2.141,0.606,4.289,2.018,5.884c-1.844-1.282-2.067-3.736-2.2-5.784
			c-4.536,2.387-38.926,31.111-38.263,86.476c0.592,36.32,15.554,76.257,32.832,104.258c25.457,21.981,65.479,40.218,78.611,48.789
			c-28.205-7.53-55.77-20.109-78.075-40.103c17.549,158.459,282.586,223.448,325.122,213.196
			c-124.209-136.647-138.959-254.983-142.134-260.695c-8.48,3.064-19.495-5.166-23.443-9.345
			c13.512,11.545,23.069,11.224,23.138,8.006c18.331-7.291,7.173-38.862,16.232-87.546c16.591-89.189,77.465-125.232,158.24-101.466
			c-9.068-14.339-6.65-25.856-4.208-42.009c0.494-6.917,2.513-14.02,7.211-19.284
			C1450.489,231.613,1418.054,234.869,1387.627,245.292 M1494.873,232.427c-31.726,30.669-8.806,67.321-2.36,66.817
			C1505.801,300.289,1516.563,238.961,1494.873,232.427 M1480.31,244.593c2.122-3.71,4.483-7.27,7.085-10.653
			C1483.998,236.624,1481.741,240.56,1480.31,244.593 M1280.046,248.678l0.182,0.033c0.309-2.754,0.71-5.512,1.557-8.166
			C1280.343,242.924,1279.388,245.927,1280.046,248.678 M1390.099,300.508c-31.703,11.976-50.384,40.21-61.237,72.44
			c14.781-23.097,45.39-75.997,100.548-66.579c58.902,35.331,59.521,113.165,32.721,175.122c-1.985,6.561-3.966,13.363-8.278,18.838
			c-4.924,6.272-12.288,5.404-14.519,3.49c3.709-0.117,7.238,0.32,12.66-4.996c17.697-18.442,45.877-140.665-24.573-187.578
			c-42.774-7.606-73,26.791-95.319,63.839c15.856,76.33,78.567,93.416,82.101,101.526c0.242,3.2-0.372,6.401-0.989,9.53
			c2.675,2.261,9.671,17.119,21.741,19.696c-8.334-0.044-17.074-10.159-22.269-16.619c-0.58,0.026-0.375,0.892-0.613,1.279
			c-3.368,11.521-10.766,22.309-22.079,18.154c19.839,3.37,23.313-24.651,23.031-31.327c0.074-1.414-4.327-3.787-7.2-5.419
			c-37.921-21.44-65.078-44.918-77.566-96.43c-0.925,1.415-9.326,27.801-11.021,72.849c-0.275,5.906,1.158,22.554-7.72,32.702
			c10.108,25.938,37.973,51.55,51.254,54.417c15.891,3.53,23.692-18.58,23.934-23.417c0.074,0.015,0.216,0.037,0.29,0.048
			c-9.234,42.367-41.275,25.202-67.474-8.687c9.435,16.84,40.291,70.669,70.831,118.301
			c73.246,113.776,94.36,121.661,113.35,115.268c53.039-17.984,2.241-224.19-38.062-257.406
			c35.865,23.958,94.636,225.345,44.991,258.026c-29.999,20.373-66.874-20.226-145.58-147.468
			c-15.504-25.194-30.654-50.607-45.161-76.384c0.031,0.45,21.962,101.794,132.44,229.212
			c15.47,14.966-141.469-1.928-245.693-82.495c-44.214-34.222-61.155-66.093-64.471-70.508c2.017,6.886,25.943,44.818,37.631,53.12
			c10.312,7.158,37.123,49.089,133.384,82.231c41.654,14.267,138.59,38.339,182.11,26.305c23.516-6.399,28.764-16.379,33.26-25.454
			c26.099-56.266,27.554-202.717-32.516-299.341c-0.751-1.29-1.836-2.483-1.914-4.044
			C1484.229,354.173,1455.67,275.973,1390.099,300.508 M1223.644,405.691c-0.643,6.363-1.844,12.664-2.234,19.057l0.219,0.197
			l0.216-0.022c0.546-6.393,1.386-12.805,1.888-19.217L1223.644,405.691 M1221.247,425.507c-0.587,8.296-1.286,16.619-0.989,24.952
			l0.086-0.022c0.023-4.081,1.276-24.974,1.241-25.145C1221.5,425.343,1221.332,425.451,1221.247,425.507 M1147.669,624.841
			c0.662,40.212-0.643,81.576-7.397,120.892c30.499-17.17,61.549-15.564,81.633,13.303c-6.601-23.796-10.947-48.172-13.916-72.671
			C1207.988,686.365,1172.844,661.446,1147.669,624.841z"/>
		<path fill="#020101" d="M1200.978,497.977c16.476,9.68,10.839,25.828-18.403,26.294c-27.685-0.376-50.756-13.519-44.422-23.268
			c-0.9,1.951-1.048,4.289-0.089,6.252c10.441,22.083,82.402,14.737,64.534-2.379c-11.836-11.214-48.068-18.728-64.289-4.197
			C1146.144,489.039,1182.305,487.364,1200.978,497.977z"/>
	</g>
	<path fill="none" stroke="#020101" stroke-width="17.3433" stroke-miterlimit="10" d="M54.068,521.274h163.614l23.751-71.252
		l22.431,71.252h23.751l10.556,32.987l26.39-453.898l39.584,639.943l21.111-219.032l56.737-1.32c0,0,47.501-65.973,100.28,0
		l81.807-1.32l27.709-68.613l22.431,65.973l22.431,2.639l9.236,34.306l30.348-442.022L774.5,740.305l19.792-221.671l64.654,2.639
		c2.347-0.212,44.815-66.24,97.641-1.32l153.058-1.32"/>
	<path fill="none" stroke="#020101" stroke-width="17.3433" stroke-miterlimit="10" d="M1536.311,521.274h163.614l23.751-71.252
		l22.431,71.252h23.751l10.556,32.987l26.39-453.898l39.584,639.943l21.111-219.032l56.737-1.32c0,0,47.501-65.973,100.28,0
		l81.807-1.32l27.708-68.613l22.431,65.973l22.431,2.639l9.236,34.306l30.348-442.022l38.265,629.387l19.792-221.671l64.654,2.639
		c2.347-0.212,44.815-66.24,97.641-1.32l153.058-1.32"/>
	<circle fill="#020101" cx="2591.888" cy="519.357" r="22.18"/>
</g>
</svg>
